<svg xmlns="http://www.w3.org/2000/svg" width="256" height="256" viewBox="0 0 100 100"><path fill="#fff" d="M92.12 50.00C92.12 26.78 73.31 7.88 50 7.88C26.78 7.88 7.88 26.78 7.88 50.00C7.88 73.22 26.78 92.12 50 92.12C73.31 92.12 92.12 73.22 92.12 50.00ZM45.77 30.11C45.77 27.86 47.66 25.88 50 25.88C52.25 25.88 54.23 27.86 54.23 30.11C54.23 32.45 52.25 34.34 50 34.34C47.66 34.34 45.77 32.45 45.77 30.11ZM89.78 50.00C89.78 71.96 71.96 89.78 50 89.78C39.02 89.78 30.11 80.87 30.11 69.89C30.11 58.91 39.02 50.00 50 50.00C60.98 50.00 69.89 41.09 69.89 30.11C69.89 19.13 60.98 10.22 50.09 10.22C71.96 10.22 89.78 28.04 89.78 50.00ZM54.23 69.89C54.23 67.64 52.25 65.66 50 65.66C47.66 65.66 45.77 67.64 45.77 69.89C45.77 72.23 47.66 74.12 50 74.12C52.25 74.12 54.23 72.23 54.23 69.89Z"></path></svg>